<?xml version="1.0" standalone="no"?>
<!DOCTYPE svg PUBLIC "-//W3C//DTD SVG 20010904//EN"
 "http://www.w3.org/TR/2001/REC-SVG-20010904/DTD/svg10.dtd">
<svg version="1.0" xmlns="http://www.w3.org/2000/svg"
 width="246.000000pt" height="246.000000pt" viewBox="0 0 246.000000 246.000000"
 preserveAspectRatio="xMidYMid meet">
<metadata>
Created by potrace 1.11, written by Peter Selinger 2001-2013
</metadata>
<g transform="translate(0.000000,246.000000) scale(0.100000,-0.100000)"
fill="#000000" stroke="none">
<path d="M5 2448 c-3 -7 -4 -560 -3 -1228 l3 -1215 1225 0 1225 0 0 1225 0
1225 -1223 3 c-973 2 -1224 0 -1227 -10z m2002 -224 c-3 -3 -12 -4 -19 -1 -8
3 -5 6 6 6 11 1 17 -2 13 -5z m-25 -95 c-52 -50 -71 -61 -114 -69 -68 -13
-108 -13 -88 0 12 8 12 10 1 10 -8 0 -19 -7 -25 -15 -6 -8 -43 -19 -86 -26
-41 -6 -93 -16 -115 -23 l-40 -11 -23 -143 c-13 -79 -22 -145 -20 -147 2 -1
59 6 127 17 l123 20 21 -21 22 -21 -35 -34 c-33 -33 -42 -36 -155 -52 -66 -9
-121 -18 -122 -18 -1 -1 -16 -87 -33 -191 -17 -105 -36 -192 -42 -194 -6 -2
-5 -7 3 -12 11 -7 11 -9 1 -9 -8 0 -10 -8 -7 -22 6 -26 -37 -297 -58 -361 -8
-23 -13 -55 -12 -72 1 -16 -1 -37 -6 -46 -5 -9 -11 -45 -14 -80 -3 -35 -8 -73
-12 -84 -4 -11 -6 -31 -4 -45 1 -19 -14 -40 -65 -90 -36 -36 -62 -56 -56 -45
9 19 17 71 42 285 6 52 25 155 41 229 16 73 34 177 40 230 5 53 15 128 20 166
6 39 15 104 20 145 5 41 14 97 19 124 10 45 8 51 -12 73 l-22 23 29 30 c26 27
31 45 61 232 19 111 37 205 41 208 5 4 76 17 158 29 83 13 197 31 255 42 106
19 149 25 185 27 15 1 3 -15 -43 -59z m-1022 37 c0 -2 -8 -10 -17 -17 -16 -13
-17 -12 -4 4 13 16 21 21 21 13z m563 -23 c-7 -2 -21 -2 -30 0 -10 3 -4 5 12
5 17 0 24 -2 18 -5z m-603 -17 c0 -2 -8 -10 -17 -17 -16 -13 -17 -12 -4 4 13
16 21 21 21 13z m8 -246 c-22 -135 -44 -248 -49 -251 -6 -3 -7 -13 -3 -22 4
-11 1 -17 -7 -17 -10 0 -11 -2 0 -12 10 -11 24 0 74 52 34 36 144 151 245 257
108 115 182 185 182 174 0 -9 -5 -42 -10 -73 -10 -53 -16 -61 -138 -187 -103
-107 -131 -131 -146 -125 -16 6 -18 4 -14 -14 6 -23 -32 -68 -47 -55 -14 12
13 -27 91 -129 88 -115 148 -202 137 -195 -4 3 -9 -25 -10 -62 0 -36 -5 -77
-10 -90 -9 -23 -11 -21 -55 40 -24 35 -79 112 -122 171 -47 66 -74 113 -70
120 4 7 3 10 -1 5 -5 -4 -18 2 -30 13 l-22 20 -18 -20 c-19 -21 -41 -28 -29
-9 4 8 0 8 -15 0 -11 -7 -21 -13 -22 -14 0 -1 -4 -56 -8 -122 -5 -66 -20 -185
-34 -265 -14 -80 -29 -169 -32 -198 l-7 -54 -29 28 c-31 30 -40 55 -11 33 13
-11 12 -8 -3 11 -11 14 -24 28 -28 31 -5 4 -4 38 2 77 6 39 11 92 11 119 0 26
8 77 19 113 10 36 21 107 25 158 7 88 6 95 -14 117 l-21 23 31 29 c31 29 32
34 61 234 l30 204 67 67 c36 37 67 66 68 65 1 -1 -16 -112 -38 -247z m451 247
c-2 -1 -15 -11 -29 -22 l-25 -20 19 23 c11 12 24 22 29 22 6 0 8 -1 6 -3z
m-509 -50 c0 -2 -19 -21 -42 -42 l-43 -40 40 43 c36 39 45 47 45 39z m430 -30
c0 -1 -42 -43 -92 -92 l-93 -90 90 93 c83 85 95 97 95 89z m527 -33 c-3 -3
-12 -4 -19 -1 -8 3 -5 6 6 6 11 1 17 -2 13 -5z m-54 -11 c-7 -2 -21 -2 -30 0
-10 3 -4 5 12 5 17 0 24 -2 18 -5z m-66 -9 c-3 -3 -12 -4 -19 -1 -8 3 -5 6 6
6 11 1 17 -2 13 -5z m-64 -11 c-7 -2 -19 -2 -25 0 -7 3 -2 5 12 5 14 0 19 -2
13 -5z m-70 -10 c-15 -3 -23 -12 -24 -26 0 -12 -3 -16 -6 -9 -9 22 5 42 29 41
l23 -2 -22 -4z m-596 -25 c-3 -8 -6 -5 -6 6 -1 11 2 17 5 13 3 -3 4 -12 1 -19z
m-190 -50 c-3 -7 -5 -2 -5 12 0 14 2 19 5 13 2 -7 2 -19 0 -25z m750 -10 c-3
-7 -5 -2 -5 12 0 14 2 19 5 13 2 -7 2 -19 0 -25z m-570 -10 c-3 -8 -6 -5 -6 6
-1 11 2 17 5 13 3 -3 4 -12 1 -19z m-190 -30 c-3 -7 -5 -2 -5 12 0 14 2 19 5
13 2 -7 2 -19 0 -25z m-10 -70 c-3 -8 -6 -5 -6 6 -1 11 2 17 5 13 3 -3 4 -12
1 -19z m180 -25 c-3 -10 -5 -2 -5 17 0 19 2 27 5 18 2 -10 2 -26 0 -35z m113
43 c0 -2 -8 -10 -17 -17 -16 -13 -17 -12 -4 4 13 16 21 21 21 13z m462 -26 c3
-16 1 -30 -4 -30 -4 0 -8 14 -8 30 0 17 2 30 4 30 2 0 6 -13 8 -30z m264 -22
l29 -33 -32 29 c-18 17 -33 31 -33 33 0 8 8 1 36 -29z m-153 15 c-7 -2 -19 -2
-25 0 -7 3 -2 5 12 5 14 0 19 -2 13 -5z m-876 -35 c-3 -8 -6 -5 -6 6 -1 11 2
17 5 13 3 -3 4 -12 1 -19z m226 -12 c-40 -49 -53 -52 -52 -13 1 27 2 29 8 9
l6 -23 29 30 c40 41 45 39 9 -3z m827 -20 c0 -2 -8 -10 -17 -17 -16 -13 -17
-12 -4 4 13 16 21 21 21 13z m-1063 -38 c-3 -8 -6 -5 -6 6 -1 11 2 17 5 13 3
-3 4 -12 1 -19z m-65 -120 l-22 -22 31 -32 c22 -23 27 -34 18 -39 -7 -5 -10
-4 -6 2 4 5 -7 22 -23 38 -28 27 -28 28 -12 51 9 13 21 24 27 24 5 0 -1 -10
-13 -22z m268 -133 c17 -25 29 -45 26 -45 -3 0 -18 18 -32 40 -23 34 -29 38
-43 28 -14 -12 -14 -11 -2 5 7 9 15 17 17 17 2 0 17 -20 34 -45z m-63 -27 c-3
-8 -6 -5 -6 6 -1 11 2 17 5 13 3 -3 4 -12 1 -19z m-190 -45 c-3 -10 -5 -4 -5
12 0 17 2 24 5 18 2 -7 2 -21 0 -30z m304 0 c13 -16 12 -17 -3 -4 -10 7 -18
15 -18 17 0 8 8 3 21 -13z m30 -40 c13 -16 12 -17 -3 -4 -10 7 -18 15 -18 17
0 8 8 3 21 -13z m-344 -25 c-3 -7 -5 -2 -5 12 0 14 2 19 5 13 2 -7 2 -19 0
-25z m383 -28 c12 -16 19 -30 16 -30 -2 0 -14 14 -26 30 -12 17 -19 30 -16 30
2 0 14 -13 26 -30z m-393 -32 c-3 -7 -5 -2 -5 12 0 14 2 19 5 13 2 -7 2 -19 0
-25z m184 -14 c-9 -28 -9 -29 -10 -3 -1 14 2 29 6 32 11 12 13 2 4 -29z m250
-11 c13 -16 12 -17 -3 -4 -10 7 -18 15 -18 17 0 8 8 3 21 -13z m-444 -45 c-3
-7 -5 -2 -5 12 0 14 2 19 5 13 2 -7 2 -19 0 -25z m750 0 c-3 -8 -6 -5 -6 6 -1
11 2 17 5 13 3 -3 4 -12 1 -19z m-760 -65 c-3 -10 -5 -4 -5 12 0 17 2 24 5 18
2 -7 2 -21 0 -30z m-10 -60 c-3 -10 -5 -4 -5 12 0 17 2 24 5 18 2 -7 2 -21 0
-30z m750 -25 c-3 -7 -5 -2 -5 12 0 14 2 19 5 13 2 -7 2 -19 0 -25z m-760 -40
c-3 -7 -5 -2 -5 12 0 14 2 19 5 13 2 -7 2 -19 0 -25z m570 10 c-3 -8 -6 -5 -6
6 -1 11 2 17 5 13 3 -3 4 -12 1 -19z m180 -30 c-3 -7 -5 -2 -5 12 0 14 2 19 5
13 2 -7 2 -19 0 -25z m-694 -108 l52 -55 -63 60 c-38 36 -62 67 -61 80 0 17 2
17 10 -5 6 -14 33 -50 62 -80z m504 68 c-3 -8 -6 -5 -6 6 -1 11 2 17 5 13 3
-3 4 -12 1 -19z m-10 -60 c-3 -8 -6 -5 -6 6 -1 11 2 17 5 13 3 -3 4 -12 1 -19z
m-10 -70 c-3 -7 -5 -2 -5 12 0 14 2 19 5 13 2 -7 2 -19 0 -25z m-402 -18 c10
-11 16 -20 13 -20 -3 0 -13 9 -23 20 -10 11 -16 20 -13 20 3 0 13 -9 23 -20z
m392 -42 c-3 -7 -5 -2 -5 12 0 14 2 19 5 13 2 -7 2 -19 0 -25z m-10 -60 c-3
-7 -5 -2 -5 12 0 14 2 19 5 13 2 -7 2 -19 0 -25z m-10 -70 c-3 -7 -5 -2 -5 12
0 14 2 19 5 13 2 -7 2 -19 0 -25z m-10 -65 c-3 -10 -5 -4 -5 12 0 17 2 24 5
18 2 -7 2 -21 0 -30z m180 -20 c-3 -10 -5 -4 -5 12 0 17 2 24 5 18 2 -7 2 -21
0 -30z m-190 -40 c-3 -10 -5 -4 -5 12 0 17 2 24 5 18 2 -7 2 -21 0 -30z m169
-11 c-17 -16 -18 -16 -5 5 7 12 15 20 18 17 3 -2 -3 -12 -13 -22z m-179 -44
c-3 -8 -6 -5 -6 6 -1 11 2 17 5 13 3 -3 4 -12 1 -19z m103 -41 c-24 -23 -38
-33 -30 -22 21 30 64 73 70 68 2 -2 -16 -23 -40 -46z"/>
</g>
</svg>
