<?xml version="1.0" encoding="UTF-8"?>
<svg width="484px" height="26px" viewBox="0 0 484 26" version="1.1" xmlns="http://www.w3.org/2000/svg" xmlns:xlink="http://www.w3.org/1999/xlink">
    <!-- Generator: Sketch 51.3 (57544) - http://www.bohemiancoding.com/sketch -->
    <title>logo-dk</title>
    <desc>Created with Sketch.</desc>
    <defs></defs>
    <g id="Page-1" stroke="none" stroke-width="1" fill="none" fill-rule="evenodd">
        <g id="Artboard" transform="translate(-258.000000, -237.000000)">
            <g id="Logo-Dark" transform="translate(-1.000000, 0.000000)">
                <g id="logo-dk" transform="translate(259.000000, 237.000000)">
                    <path d="M225.056,0.758 C228.002681,0.758 230.450657,1.50599252 232.4,3.002 C234.349343,4.49800748 235.663997,6.52665386 236.344,9.088 L232.23,9.088 C231.663331,7.63732608 230.76234,6.48700425 229.527,5.637 C228.29166,4.78699575 226.778676,4.362 224.988,4.362 C223.559993,4.362 222.285006,4.71332982 221.163,5.416 C220.040994,6.11867018 219.157003,7.12166015 218.511,8.425 C217.864997,9.72833985 217.542,11.2526579 217.542,12.998 C217.542,14.7206753 217.864997,16.2336602 218.511,17.537 C219.157003,18.8403399 220.040994,19.8433298 221.163,20.546 C222.285006,21.2486702 223.559993,21.6 224.988,21.6 C226.778676,21.6 228.29166,21.1750043 229.527,20.325 C230.76234,19.4749958 231.663331,18.3360071 232.23,16.908 L236.344,16.908 C235.663997,19.4693461 234.349343,21.4923259 232.4,22.977 C230.450657,24.4616741 228.002681,25.204 225.056,25.204 C222.789322,25.204 220.783342,24.6883385 219.038,23.657 C217.292658,22.6256615 215.944005,21.1863426 214.992,19.339 C214.039995,17.4916574 213.564,15.3780119 213.564,12.998 C213.564,10.6179881 214.039995,8.50434257 214.992,6.657 C215.944005,4.80965743 217.292658,3.36467188 219.038,2.322 C220.783342,1.27932812 222.789322,0.758 225.056,0.758 Z M256.338,0.69 C258.559344,0.69 260.570991,1.21132812 262.373,2.254 C264.175009,3.29667188 265.591662,4.75299065 266.623,6.623 C267.654338,8.49300935 268.17,10.6066549 268.17,12.964 C268.17,15.3213451 267.654338,17.4349907 266.623,19.305 C265.591662,21.1750094 264.175009,22.6369947 262.373,23.691 C260.570991,24.7450053 258.559344,25.272 256.338,25.272 C254.093989,25.272 252.071009,24.7450053 250.269,23.691 C248.466991,22.6369947 247.044672,21.1750094 246.002,19.305 C244.959328,17.4349907 244.438,15.3213451 244.438,12.964 C244.438,10.6066549 244.959328,8.49300935 246.002,6.623 C247.044672,4.75299065 248.466991,3.29667188 250.269,2.254 C252.071009,1.21132812 254.093989,0.69 256.338,0.69 Z M256.338,4.294 C254.796659,4.294 253.425339,4.64532982 252.224,5.348 C251.022661,6.05067018 250.08767,7.05932676 249.419,8.374 C248.75033,9.68867324 248.416,11.2186579 248.416,12.964 C248.416,14.7093421 248.75033,16.2393268 249.419,17.554 C250.08767,18.8686732 251.022661,19.8773298 252.224,20.58 C253.425339,21.2826702 254.796659,21.634 256.338,21.634 C257.856674,21.634 259.210994,21.2826702 260.401,20.58 C261.591006,19.8773298 262.52033,18.8686732 263.189,17.554 C263.85767,16.2393268 264.192,14.7093421 264.192,12.964 C264.192,11.2186579 263.85767,9.68867324 263.189,8.374 C262.52033,7.05932676 261.591006,6.05067018 260.401,5.348 C259.210994,4.64532982 257.856674,4.294 256.338,4.294 Z M301.968,1.37 L301.968,25 L298.058,25 L298.058,7.286 L291.224,25 L287.824,25 L280.956,7.286 L280.956,25 L277.08,25 L277.08,1.37 L281.772,1.37 L289.592,20.24 L297.276,1.37 L301.968,1.37 Z M315.502,15.684 L315.502,25 L311.626,25 L311.626,0.996 L319.786,0.996 C322.551347,0.996 324.630993,1.65332676 326.025,2.968 C327.419007,4.28267324 328.116,6.08465522 328.116,8.374 C328.116,10.640678 327.402007,12.4256602 325.974,13.729 C324.545993,15.0323399 322.483347,15.684 319.786,15.684 L315.502,15.684 Z M319.378,12.522 C322.574016,12.522 324.172,11.1393472 324.172,8.374 C324.172,7.0139932 323.792337,5.97700357 323.033,5.263 C322.273663,4.54899643 321.055342,4.192 319.378,4.192 L315.502,4.192 L315.502,12.522 L319.378,12.522 Z M340.392,4.124 L340.392,11.4 L349.232,11.4 L349.232,14.392 L340.392,14.392 L340.392,21.838 L350.252,21.838 L350.252,25 L336.516,25 L336.516,0.996 L350.252,0.996 L350.252,4.124 L340.392,4.124 Z M378.44,25 L374.564,25 L362.902,7.286 L362.902,25 L359.026,25 L359.026,1.03 L362.902,1.03 L374.564,18.812 L374.564,1.03 L378.44,1.03 L378.44,25 Z M408.736,12.964 C408.736,15.3893455 408.243005,17.502991 407.257,19.305 C406.270995,21.107009 404.831676,22.5066617 402.939,23.504 C401.046324,24.5013383 398.785346,25 396.156,25 L388.132,25 L388.132,0.996 L396.156,0.996 C398.785346,0.996 401.046324,1.48899507 402.939,2.475 C404.831676,3.46100493 406.270995,4.84932438 407.257,6.64 C408.243005,8.43067562 408.736,10.5386545 408.736,12.964 Z M395.85,21.498 C398.728681,21.498 400.938659,20.7500075 402.48,19.254 C404.021341,17.7579925 404.792,15.6613468 404.792,12.964 C404.792,10.2666532 404.021341,8.17000748 402.48,6.674 C400.938659,5.17799252 398.728681,4.43 395.85,4.43 L392.008,4.43 L392.008,21.498 L395.85,21.498 Z M421.522,0.996 L421.522,25 L417.646,25 L417.646,0.996 L421.522,0.996 Z M434.92,0.996 L434.92,15.242 C434.92,17.3726773 435.390329,18.9593281 436.331,20.002 C437.271671,21.0446719 438.591992,21.566 440.292,21.566 C441.969342,21.566 443.278329,21.0446719 444.219,20.002 C445.159671,18.9593281 445.63,17.3726773 445.63,15.242 L445.63,0.996 L449.506,0.996 L449.506,15.242 C449.506,18.5286831 448.656008,21.0163249 446.956,22.705 C445.255992,24.3936751 443.012014,25.238 440.224,25.238 C437.458653,25.238 435.237342,24.3936751 433.56,22.705 C431.882658,21.0163249 431.044,18.5286831 431.044,15.242 L431.044,0.996 L434.92,0.996 Z M483.916,1.37 L483.916,25 L480.006,25 L480.006,7.286 L473.172,25 L469.772,25 L462.904,7.286 L462.904,25 L459.028,25 L459.028,1.37 L463.72,1.37 L471.54,20.24 L479.224,1.37 L483.916,1.37 Z" id="COMPENDIUM" fill="#FFFFFF"></path>
                    <path d="M4.897,12.318 L15.886,24 L13.015,24 L2.851,13.077 L2.851,24 L0.508,24 L0.508,0.735 L2.851,0.735 L2.851,11.658 L13.015,0.735 L15.886,0.735 L4.897,12.318 Z M26.298,2.616 L26.298,11.394 L35.373,11.394 L35.373,13.209 L26.298,13.209 L26.298,22.086 L36.363,22.086 L36.363,24 L23.955,24 L23.955,0.735 L36.363,0.735 L36.363,2.616 L26.298,2.616 Z M60.998,0.735 L53.507,14.925 L53.507,24 L51.164,24 L51.164,14.925 L43.64,0.735 L46.313,0.735 L52.319,12.45 L58.325,0.735 L60.998,0.735 Z M81.871,0.735 L81.871,2.616 L71.575,2.616 L71.575,11.493 L80.485,11.493 L80.485,13.308 L71.575,13.308 L71.575,24 L69.232,24 L69.232,0.735 L81.871,0.735 Z M101.16,0.471 C103.316011,0.471 105.251991,0.97699494 106.968,1.989 C108.684009,3.00100506 110.031495,4.40899098 111.0105,6.213 C111.989505,8.01700902 112.479,10.0629886 112.479,12.351 C112.479,14.6390114 111.989505,16.6904909 111.0105,18.5055 C110.031495,20.3205091 108.684009,21.7339949 106.968,22.746 C105.251991,23.7580051 103.316011,24.264 101.16,24.264 C99.0039892,24.264 97.0680086,23.7580051 95.352,22.746 C93.6359914,21.7339949 92.2885049,20.3205091 91.3095,18.5055 C90.3304951,16.6904909 89.841,14.6390114 89.841,12.351 C89.841,10.0629886 90.3304951,8.01700902 91.3095,6.213 C92.2885049,4.40899098 93.6359914,3.00100506 95.352,1.989 C97.0680086,0.97699494 99.0039892,0.471 101.16,0.471 Z M101.16,2.616 C99.4659915,2.616 97.9425068,3.01199604 96.5895,3.804 C95.2364932,4.59600396 94.1695039,5.72899263 93.3885,7.203 C92.6074961,8.67700737 92.217,10.3929902 92.217,12.351 C92.217,14.3090098 92.6074961,16.0249926 93.3885,17.499 C94.1695039,18.9730074 95.2364932,20.105996 96.5895,20.898 C97.9425068,21.690004 99.4659915,22.086 101.16,22.086 C102.854008,22.086 104.377493,21.690004 105.7305,20.898 C107.083507,20.105996 108.150496,18.9730074 108.9315,17.499 C109.712504,16.0249926 110.103,14.3090098 110.103,12.351 C110.103,10.3929902 109.712504,8.67700737 108.9315,7.203 C108.150496,5.72899263 107.083507,4.59600396 105.7305,3.804 C104.377493,3.01199604 102.854008,2.616 101.16,2.616 Z M134.177,24 L127.808,14.298 L124.046,14.298 L124.046,24 L121.703,24 L121.703,0.735 L128.831,0.735 C131.449013,0.735 133.401494,1.35099384 134.6885,2.583 C135.975506,3.81500616 136.619,5.47598955 136.619,7.566 C136.619,9.50200968 136.074505,11.0419943 134.9855,12.186 C133.896495,13.3300057 132.31801,14.0119989 130.25,14.232 L136.817,24 L134.177,24 Z M124.046,12.549 L128.666,12.549 C132.406019,12.549 134.276,10.9320162 134.276,7.698 C134.276,4.3979835 132.406019,2.748 128.666,2.748 L124.046,2.748 L124.046,12.549 Z M155.974,0.537 C158.614013,0.537 160.846991,1.1969934 162.673,2.517 C164.499009,3.8370066 165.752997,5.62998867 166.435,7.896 L164.026,7.896 C163.431997,6.33399219 162.425507,5.06900484 161.0065,4.101 C159.587493,3.13299516 157.91001,2.649 155.974,2.649 C154.301992,2.649 152.789507,3.04499604 151.4365,3.837 C150.083493,4.62900396 149.022004,5.76199263 148.252,7.236 C147.481996,8.71000737 147.097,10.4259902 147.097,12.384 C147.097,14.38601 147.487496,16.1239926 148.2685,17.598 C149.049504,19.0720074 150.127493,20.204996 151.5025,20.997 C152.877507,21.789004 154.444991,22.185 156.205,22.185 C157.767008,22.185 159.196994,21.8385035 160.495,21.1455 C161.793006,20.4524965 162.843496,19.4460066 163.6465,18.126 C164.449504,16.8059934 164.916999,15.2550089 165.049,13.473 L155.38,13.473 L155.38,11.724 L167.062,11.724 L167.062,13.77 C166.907999,15.7500099 166.352505,17.5319921 165.3955,19.116 C164.438495,20.7000079 163.151508,21.9484954 161.5345,22.8615 C159.917492,23.7745046 158.07501,24.231 156.007,24.231 C153.806989,24.231 151.849009,23.730505 150.133,22.7295 C148.416991,21.728495 147.086005,20.326009 146.14,18.522 C145.193995,16.717991 144.721,14.6720114 144.721,12.384 C144.721,10.0959886 145.193995,8.05000902 146.14,6.246 C147.086005,4.44199098 148.411491,3.03950501 150.1165,2.0385 C151.821509,1.03749499 153.773989,0.537 155.974,0.537 Z M178.629,2.616 L178.629,11.394 L187.704,11.394 L187.704,13.209 L178.629,13.209 L178.629,22.086 L188.694,22.086 L188.694,24 L176.286,24 L176.286,0.735 L188.694,0.735 L188.694,2.616 L178.629,2.616 Z" id="KEYFORGE" fill="#FFFFFF"></path>
                    <ellipse id="Oval" fill="#DA4D5B" fill-rule="nonzero" cx="201.5" cy="20.4999906" rx="2.5" ry="2.49999062"></ellipse>
                    <ellipse id="Oval" fill="#DA4D5B" fill-rule="nonzero" cx="201.5" cy="6.4999975" rx="2.5" ry="2.4999975"></ellipse>
                </g>
            </g>
        </g>
    </g>
</svg>