<?xml version="1.0" encoding="UTF-8"?>
<svg width="150px" height="150px" viewBox="0 0 150 150" version="1.1" xmlns="http://www.w3.org/2000/svg" xmlns:xlink="http://www.w3.org/1999/xlink">
    <!-- Generator: Sketch 51.3 (57544) - http://www.bohemiancoding.com/sketch -->
    <title>Icon</title>
    <desc>Created with Sketch.</desc>
    <defs></defs>
    <g id="Page-1" stroke="none" stroke-width="1" fill="none" fill-rule="evenodd">
        <g id="Artboard" transform="translate(-1426.000000, -675.000000)" fill-rule="nonzero">
            <g id="Logo-Icon-Dark" transform="translate(1001.000000, 500.000000)">
                <g id="Icon" transform="translate(425.000000, 175.000000)">
                    <circle id="Oval" fill="#FFFFFF" cx="75" cy="75" r="75"></circle>
                    <g id="Icon-text" transform="translate(35.000000, 47.000000)">
                        <path d="M32.24,44.032 C32.8800032,44.1600006 33.2,44.5439968 33.2,45.184 L33.2,48 L27.184,48 C26.3733293,48 25.6480032,47.6160038 25.008,46.848 L14.384,33.536 C14.0853318,33.1093312 13.765335,32.8320006 13.424,32.704 C13.082665,32.5759994 12.5920032,32.512 11.952,32.512 L10.416,32.512 L10.416,43.328 C10.6720013,43.328 11.4186605,43.4773318 12.656,43.776 L14,44.032 C14.6826701,44.1600006 15.024,44.5653299 15.024,45.248 L15.024,48 L0.048,48 L0.048,45.248 C0.048,44.5653299 0.3679968,44.1600006 1.008,44.032 L4.656,43.328 L4.656,5.504 C2.60798976,5.11999808 1.39200192,4.86400064 1.008,4.736 C0.3679968,4.60799936 0.048,4.2240032 0.048,3.584 L0.048,0.832 L10.416,0.832 L10.416,28.544 L11.824,28.544 C12.7200045,28.544 13.4026643,28.2453363 13.872,27.648 L21.168,19.84 C21.0399994,19.84 20.9120006,19.8186669 20.784,19.776 C20.6559994,19.7333331 20.5280006,19.712 20.4,19.712 L19.376,19.52 C18.6933299,19.3919994 18.352,18.9866701 18.352,18.304 L18.352,15.616 L31.92,15.616 L31.92,18.304 C31.92,18.9440032 31.6426694,19.3279994 31.088,19.456 L27.12,20.224 L19.568,28.288 C18.8853299,29.0986707 18.2666694,29.674665 17.712,30.016 C18.5653376,30.5706694 19.2053312,31.2319962 19.632,32 L28.592,43.392 L30.256,43.648 C31.3653389,43.9040013 32.0479987,44.032 32.304,44.032 L32.24,44.032 Z M79.688,43.456 C76.9999866,46.7840166 72.98936,48.448 67.656,48.448 C63.5599795,48.448 60.1893466,46.9760147 57.544,44.032 C54.7706528,40.9173178 53.384,36.8213587 53.384,31.744 C53.384,26.7946419 54.6853203,22.8053485 57.288,19.776 C60.0186803,16.6613178 63.8159757,15.104 68.68,15.104 C71.1120122,15.104 74.3119802,15.8719923 78.28,17.408 L78.28,25.856 L75.72,25.856 C75.1226637,25.856 74.7600006,25.5573363 74.632,24.96 C74.5893331,24.8319994 74.5040006,24.0213408 74.376,22.528 L74.184,20.416 C73.7146643,20.2453325 73.2560022,20.1173338 72.808,20.032 C72.3599978,19.9466662 72.0506675,19.8826669 71.88,19.84 C70.7279942,19.6693325 69.5333395,19.584 68.296,19.584 C67.1866611,19.584 66.0133395,19.8613306 64.776,20.416 C63.6239942,20.9280026 62.6213376,21.717328 61.768,22.784 C60.1466586,24.917344 59.336,27.9039808 59.336,31.744 C59.336,35.5840192 60.1893248,38.6133222 61.896,40.832 C63.5600083,42.965344 65.8426522,44.032 68.744,44.032 C71.4320134,44.032 73.7999898,43.136009 75.848,41.344 C76.189335,41.002665 76.6159974,40.832 77.128,40.832 C77.5973357,40.832 77.9386656,41.002665 78.152,41.344 L79.688,43.456 Z" id="k:c" fill="#171C25"></path>
                        <path d="M39.58,20.544 C39.58,20.0746643 39.6866656,19.5626694 39.9,19.008 C40.0706675,18.5813312 40.3479981,18.1760019 40.732,17.792 C41.073335,17.450665 41.4999974,17.1520013 42.012,16.896 C42.4386688,16.6826656 42.9506637,16.576 43.548,16.576 C44.1453363,16.576 44.6573312,16.6826656 45.084,16.896 C45.5106688,17.1093344 45.9159981,17.4079981 46.3,17.792 C46.6840019,18.1760019 46.9613325,18.5813312 47.132,19.008 C47.3026675,19.4773357 47.388,19.9893306 47.388,20.544 C47.388,21.1413363 47.3026675,21.6746643 47.132,22.144 C46.9613325,22.5706688 46.6840019,22.9759981 46.3,23.36 C45.9159981,23.7440019 45.5106688,24.0213325 45.084,24.192 C44.6146643,24.3626675 44.1026694,24.448 43.548,24.448 C42.9933306,24.448 42.4813357,24.3626675 42.012,24.192 C41.5426643,24.0213325 41.1160019,23.7440019 40.732,23.36 C40.3479981,22.9759981 40.0706675,22.5706688 39.9,22.144 C39.6866656,21.5893306 39.58,21.0560026 39.58,20.544 Z" id="Path" fill="#DA4D5B"></path>
                        <path d="M39.58,44.544 C39.58,44.0746643 39.6866656,43.5626694 39.9,43.008 C40.0706675,42.5386643 40.3479981,42.1120019 40.732,41.728 C41.073335,41.386665 41.4999974,41.0880013 42.012,40.832 C42.353335,40.6613325 42.8653299,40.576 43.548,40.576 C44.2306701,40.576 44.742665,40.6613325 45.084,40.832 C45.5106688,41.0453344 45.9159981,41.3439981 46.3,41.728 C46.6840019,42.1120019 46.9613325,42.5386643 47.132,43.008 C47.3026675,43.4773357 47.388,43.9893306 47.388,44.544 C47.388,45.0986694 47.3026675,45.6106643 47.132,46.08 C46.9613325,46.5493357 46.6840019,46.9759981 46.3,47.36 C45.958665,47.701335 45.5533357,47.9573325 45.084,48.128 C44.5293306,48.3413344 44.0173357,48.448 43.548,48.448 C43.0786643,48.448 42.5666694,48.3413344 42.012,48.128 C41.4573306,47.9146656 41.0306682,47.6586682 40.732,47.36 C40.3479981,46.9759981 40.0706675,46.5493357 39.9,46.08 C39.6866656,45.5253306 39.58,45.0133357 39.58,44.544 Z" id="Path" fill="#DA4D5B"></path>
                    </g>
                </g>
            </g>
        </g>
    </g>
</svg>